<?xml version="1.0" standalone="no"?><!DOCTYPE svg PUBLIC "-//W3C//DTD SVG 1.1//EN" "http://www.w3.org/Graphics/SVG/1.1/DTD/svg11.dtd"><svg t="1527040986461" class="icon" style="" viewBox="0 0 1024 1024" version="1.1" xmlns="http://www.w3.org/2000/svg" p-id="2346" xmlns:xlink="http://www.w3.org/1999/xlink" width="14" height="14"><defs><style type="text/css"></style></defs><path d="M697.6 278.784c-6.4-6.4-12.8-6.4-19.2-6.4l-134.4-204.8 25.6-38.4h294.4l-166.4 249.6zM512 1001.984c-192 0-352-160-352-352s160-352 352-352 352 160 352 352-160 352-352 352z m0-236.8l57.6 32c32 19.2 64-12.8 57.6-44.8l-12.8-64 44.8-44.8c25.6-25.6 12.8-64-25.6-70.4l-64-6.4-32-57.6c-12.8-32-57.6-32-76.8 0l-32 57.6-64 6.4c-32 6.4-44.8 44.8-25.6 70.4l44.8 44.8-12.8 64c-6.4 32 32 57.6 57.6 44.8l83.2-32zM601.6 246.784c-32-6.4-57.6-12.8-89.6-12.8-64 0-128 12.8-185.6 44.8l-166.4-256h294.4l147.2 224z" p-id="2347" fill="#C2CCD0"></path></svg>