<?xml version="1.0" standalone="no"?><!DOCTYPE svg PUBLIC "-//W3C//DTD SVG 1.1//EN" "http://www.w3.org/Graphics/SVG/1.1/DTD/svg11.dtd"><svg t="1527040848369" class="icon" style="" viewBox="0 0 1102 1024" version="1.1" xmlns="http://www.w3.org/2000/svg" p-id="2047" xmlns:xlink="http://www.w3.org/1999/xlink" width="15.06640625" height="14"><defs><style type="text/css"></style></defs><path d="M1047.630769 630.153846c15.753846 23.630769 23.630769 55.138462 7.876923 78.769231-7.876923 15.753846-15.753846 23.630769-31.507692 31.507692l-441.107692 244.184616c-23.630769 15.753846-47.261538 15.753846-70.892308 0l-433.230769-236.307693c-39.384615-23.630769-47.261538-63.015385-31.507693-102.4 0 0 0-7.876923 7.876924-7.876923l425.353846 236.307693c47.261538 23.630769 94.523077 23.630769 141.784615 0l425.353846-244.184616z" p-id="2048" fill="#C2CCD0"></path><path d="M1047.630769 448.984615c15.753846 23.630769 23.630769 55.138462 7.876923 78.769231-7.876923 15.753846-15.753846 23.630769-31.507692 31.507692l-441.107692 244.184616c-23.630769 15.753846-47.261538 15.753846-70.892308 0l-433.230769-236.307692c-39.384615-23.630769-47.261538-63.015385-31.507693-102.4 0 0 0-7.876923 7.876924-7.876924l425.353846 236.307693c47.261538 23.630769 94.523077 23.630769 141.784615 0l425.353846-244.184616z" p-id="2049" fill="#C2CCD0"></path><path d="M590.769231 7.876923l433.230769 236.307692c39.384615 23.630769 47.261538 63.015385 31.507692 102.4-7.876923 15.753846-15.753846 23.630769-31.507692 31.507693l-441.107692 244.184615c-23.630769 15.753846-47.261538 15.753846-70.892308 0l-433.230769-236.307692c-39.384615-23.630769-47.261538-63.015385-31.507693-102.4 7.876923-15.753846 15.753846-23.630769 31.507693-31.507693l441.107692-244.184615c15.753846-7.876923 47.261538-7.876923 70.892308 0z" p-id="2050" fill="#C2CCD0"></path></svg>