<?xml version="1.0" standalone="no"?><!DOCTYPE svg PUBLIC "-//W3C//DTD SVG 1.1//EN" "http://www.w3.org/Graphics/SVG/1.1/DTD/svg11.dtd"><svg t="1527041232147" class="icon" style="" viewBox="0 0 1024 1024" version="1.1" xmlns="http://www.w3.org/2000/svg" p-id="3386" xmlns:xlink="http://www.w3.org/1999/xlink" width="14" height="14"><defs><style type="text/css"></style></defs><path d="M512 255.197949l-29.16548-51.03959c-14.58274-21.87411-14.58274-43.74822-14.58274-65.622329 7.29137-29.16548 14.58274-43.74822 29.16548-58.33096l14.58274-14.58274c7.29137-7.29137 14.58274-14.58274 14.58274-21.87411l21.87411-43.74822 29.16548 43.74822c14.58274 21.87411 14.58274 43.74822 14.58274 65.62233-7.29137 21.87411-14.58274 36.45685-29.16548 58.33096l-7.29137 7.29137c-14.58274 7.29137-21.87411 21.87411-21.87411 29.165479l-21.87411 51.03959z m14.58274 736.428368H103.683281v-466.647678c0-51.03959 43.74822-87.49644 87.49644-87.49644h255.197949c7.29137 0 14.58274-14.58274 14.58274-21.87411v-65.62233h123.95329v65.62233c0 14.58274 7.29137 29.16548 29.16548 29.16548h240.615209c51.03959 0 87.49644 43.74822 87.49644 87.49644v466.647678h-29.16548c-51.03959-7.29137-218.741099-7.29137-386.442609-7.29137z" p-id="3387" fill="#DE4873"></path><path d="M985.939049 991.626317h-918.712618c-14.58274 0-29.16548-14.58274-29.16548-29.16548s14.58274-29.16548 29.16548-29.16548h918.712618c14.58274 0 29.16548 14.58274 29.16548 29.16548s-14.58274 29.16548-29.16548 29.16548z" p-id="3388" fill="#DE4873"></path></svg>