<?xml version="1.0" standalone="no"?><!DOCTYPE svg PUBLIC "-//W3C//DTD SVG 1.1//EN" "http://www.w3.org/Graphics/SVG/1.1/DTD/svg11.dtd"><svg t="1527041138665" class="icon" style="" viewBox="0 0 1024 1024" version="1.1" xmlns="http://www.w3.org/2000/svg" p-id="2632" xmlns:xlink="http://www.w3.org/1999/xlink" width="14" height="14"><defs><style type="text/css"></style></defs><path d="M124.342857 36.571429h775.314286c51.2 0 87.771429 36.571429 87.771428 87.771428v775.314286c0 51.2-36.571429 87.771429-87.771428 87.771428h-775.314286c-51.2 0-87.771429-36.571429-87.771428-87.771428v-775.314286c0-51.2 36.571429-87.771429 87.771428-87.771428z m182.857143 526.628571c-14.628571 0-21.942857 7.314286-21.942857 21.942857v146.285714c0 14.628571 7.314286 21.942857 21.942857 21.942858h29.257143c14.628571 0 21.942857-7.314286 21.942857-21.942858v-146.285714c0-14.628571-7.314286-21.942857-21.942857-21.942857h-29.257143z m190.171429-29.257143c-14.628571 0-21.942857 7.314286-21.942858 21.942857v175.542857c0 14.628571 7.314286 21.942857 21.942858 21.942858h29.257142c14.628571 0 21.942857-7.314286 21.942858-21.942858v-175.542857c0-14.628571-7.314286-21.942857-21.942858-21.942857h-29.257142z m190.171428-80.457143c-14.628571 0-21.942857 7.314286-21.942857 21.942857v263.314286c0 14.628571 7.314286 21.942857 21.942857 21.942857h29.257143c14.628571 0 21.942857-7.314286 21.942857-21.942857v-263.314286c0-14.628571-7.314286-21.942857-21.942857-21.942857h-29.257143z m-29.257143-124.342857l-124.342857 117.028572-73.142857-87.771429c-7.314286-14.628571-29.257143-14.628571-36.571429 0l-153.6 146.285714c-7.314286 7.314286-14.628571 29.257143 0 36.571429 7.314286 7.314286 29.257143 7.314286 36.571429 0l131.657143-124.342857 73.142857 87.771428c7.314286 14.628571 29.257143 14.628571 36.571429 0l146.285714-138.971428 51.2 51.2c7.314286 7.314286 14.628571 0 14.628571-7.314286v-138.971429c0-7.314286-7.314286-7.314286-7.314285-7.314285h-138.971429c-7.314286 0-14.628571 7.314286-7.314286 14.628571l51.2 51.2z" p-id="2633" fill="#C2CCD0"></path></svg>