<?xml version="1.0" standalone="no"?><!DOCTYPE svg PUBLIC "-//W3C//DTD SVG 1.1//EN" "http://www.w3.org/Graphics/SVG/1.1/DTD/svg11.dtd"><svg t="1527041171550" class="icon" style="" viewBox="0 0 1024 1024" version="1.1" xmlns="http://www.w3.org/2000/svg" p-id="3127" xmlns:xlink="http://www.w3.org/1999/xlink" width="14" height="14"><defs><style type="text/css"></style></defs><path d="M716.8 811.885714l65.828571 65.828572c14.628571 14.628571 14.628571 36.571429 0 43.885714-14.628571 14.628571-36.571429 14.628571-43.885714 0l-109.714286-102.4-7.314285-7.314286h-226.742857s0 7.314286-7.314286 7.314286l-102.4 102.4c-14.628571 14.628571-36.571429 14.628571-43.885714 0-14.628571-14.628571-14.628571-36.571429 0-43.885714l65.828571-65.828572h-168.228571c-36.571429 0-65.828571-29.257143-65.828572-65.828571v-614.4h-21.942857c-14.628571 0-21.942857-7.314286-21.942857-21.942857s7.314286-21.942857 21.942857-21.942857h906.971429c14.628571 0 21.942857 7.314286 21.942857 21.942857s-7.314286 21.942857-21.942857 21.942857h-21.942858v614.4c0 36.571429-29.257143 65.828571-65.828571 65.828571h-153.6z m-431.542857-468.114285c-14.628571 0-29.257143 14.628571-29.257143 29.257142s14.628571 29.257143 29.257143 29.257143h285.257143c14.628571 0 29.257143-14.628571 29.257143-29.257143s-14.628571-29.257143-29.257143-29.257142h-285.257143z m0 168.228571c-14.628571 0-29.257143 14.628571-29.257143 29.257143s14.628571 29.257143 29.257143 29.257143h453.485714c14.628571 0 29.257143-14.628571 29.257143-29.257143s-14.628571-29.257143-29.257143-29.257143h-453.485714z" p-id="3128" fill="#C2CCD0"></path></svg>