<?xml version="1.0" standalone="no"?><!DOCTYPE svg PUBLIC "-//W3C//DTD SVG 1.1//EN" "http://www.w3.org/Graphics/SVG/1.1/DTD/svg11.dtd"><svg t="1527041164160" class="icon" style="" viewBox="0 0 1024 1024" version="1.1" xmlns="http://www.w3.org/2000/svg" p-id="2962" xmlns:xlink="http://www.w3.org/1999/xlink" width="14" height="14"><defs><style type="text/css"></style></defs><path d="M806.4 123.52h32c51.2 0 89.6 38.4 89.6 89.6v595.2c0 51.2-38.4 89.6-89.6 89.6h-652.8c-51.2 0-89.6-38.4-89.6-89.6v-595.2c0-51.2 38.4-89.6 89.6-89.6h25.6v83.2c0 51.2 38.4 89.6 89.6 89.6 51.2 0 89.6-38.4 89.6-89.6v-76.8-6.4h236.8v83.2c0 51.2 38.4 89.6 89.6 89.6 51.2 0 89.6-38.4 89.6-89.6v-76.8-6.4z m-326.4 537.6l-121.6-121.6c-12.8-12.8-32-12.8-44.8 0-12.8 12.8-12.8 32 0 44.8l147.2 147.2c12.8 12.8 32 12.8 44.8 0l249.6-249.6c12.8-12.8 12.8-32 0-44.8-12.8-12.8-32-12.8-44.8 0l-230.4 224z m-179.2-595.2c19.2 0 32 12.8 32 32v121.6c0 19.2-12.8 32-32 32s-32-12.8-32-32v-121.6c6.4-19.2 19.2-32 32-32z m422.4 0c19.2 0 32 12.8 32 32v121.6c0 19.2-12.8 32-32 32s-32-12.8-32-32v-121.6c0-19.2 12.8-32 32-32z" p-id="2963" fill="#C2CCD0"></path></svg>