<?xml version="1.0" encoding="UTF-8"?>
<svg width="228px" height="161px" viewBox="0 0 228 161" version="1.1" xmlns="http://www.w3.org/2000/svg" xmlns:xlink="http://www.w3.org/1999/xlink">
    <!-- Generator: Sketch 50 (54983) - http://www.bohemiancoding.com/sketch -->
    <title>闪光@2x</title>
    <desc>Created with Sketch.</desc>
    <defs></defs>
    <g id="定定定稿" stroke="none" stroke-width="1" fill="none" fill-rule="evenodd">
        <g id="勋章弹窗" transform="translate(-70.000000, -172.000000)">
            <g id="闪光" transform="translate(68.000000, 172.000000)">
                <polygon id="Star-2" fill="#FFFFFF" transform="translate(34.800000, 44.400000) rotate(45.000000) translate(-34.800000, -44.400000) " points="35.2242641 47.2496101 28.0117749 52.0367532 32.7989181 44.8242641 23.7691342 33.3691342 35.2242641 42.3989181 42.4367532 37.6117749 37.6496101 44.8242641 45.8308658 55.4308658"></polygon>
                <polygon id="Star-2" fill="#F8E71C" transform="translate(201.801835, 92.601835) rotate(45.000000) translate(-201.801835, -92.601835) " points="202.133681 94.830711 196.492296 98.5750655 200.236651 92.9336809 193.173835 83.9738346 202.133681 91.0366507 207.775066 87.2922962 204.030711 92.9336809 210.429835 101.229835"></polygon>
                <polygon id="Star-2" fill="#F8E71C" transform="translate(55.401835, 135.801835) rotate(45.000000) translate(-55.401835, -135.801835) " points="55.7336809 138.030711 50.0922962 141.775066 53.8366507 136.133681 46.7738346 127.173835 55.7336809 134.236651 61.3750655 130.492296 57.630711 136.133681 64.0298348 144.429835"></polygon>
                <polygon id="Star-2" fill="#F8E71C" transform="translate(218.702752, 13.502752) rotate(45.000000) translate(-218.702752, -13.502752) " points="219.167886 16.6268658 211.260615 21.8751557 216.508905 13.9678856 209.154865 3.95486452 219.167886 11.3089054 227.075156 6.06061548 221.826866 13.9678856 228.25064 23.0506396"></polygon>
                <polygon id="Star-2" fill="#F8E71C" transform="translate(177.700917, 34.900917) rotate(45.000000) translate(-177.700917, -34.900917) " points="177.899476 36.2345563 174.523977 38.4749753 176.764396 35.0994761 172.538389 29.7383892 177.899476 33.964396 181.274975 31.7239769 179.034556 35.0994761 182.863446 40.0634455"></polygon>
                <polygon id="Star-2" fill="#F8E71C" transform="translate(52.900917, 87.700917) rotate(45.000000) translate(-52.900917, -87.700917) " points="53.0994761 89.0345563 49.7239769 91.2749753 51.964396 87.8994761 47.7383892 82.5383892 53.0994761 86.764396 56.4749753 84.5239769 54.2345563 87.8994761 58.0634455 92.8634455"></polygon>
                <polygon id="Star-2" fill="#FFFFFF" transform="translate(140.500917, 20.500917) rotate(45.000000) translate(-140.500917, -20.500917) " points="140.699476 21.8345563 137.323977 24.0749753 139.564396 20.6994761 135.338389 15.3383892 140.699476 19.564396 144.074975 17.3239769 141.834556 20.6994761 145.663446 25.6634455"></polygon>
                <polygon id="Star-2" fill="#FFFFFF" transform="translate(160.900917, 153.700917) rotate(45.000000) translate(-160.900917, -153.700917) " points="161.099476 155.034556 157.723977 157.274975 159.964396 153.899476 155.738389 148.538389 161.099476 152.764396 164.474975 150.523977 162.234556 153.899476 166.063446 158.863446"></polygon>
                <polygon id="Star-2" fill="#FFFFFF" transform="translate(7.300917, 96.100917) rotate(45.000000) translate(-7.300917, -96.100917) " points="7.49947613 97.4345563 4.12397694 99.6749753 6.36439597 96.2994761 2.13838918 90.9383892 7.49947613 95.164396 10.8749753 92.9239769 8.6345563 96.2994761 12.4634455 101.263446"></polygon>
            </g>
        </g>
    </g>
</svg>