<?xml version="1.0" encoding="utf-8"?>
<!-- Generator: Adobe Illustrator 19.0.0, SVG Export Plug-In . SVG Version: 6.00 Build 0)  -->
<svg version="1.1" id="图层_1" xmlns="http://www.w3.org/2000/svg" xmlns:xlink="http://www.w3.org/1999/xlink" x="0px" y="0px"
	 viewBox="-366 663 16 10" style="enable-background:new -366 663 16 10;" xml:space="preserve">
<style type="text/css">
	.st0{fill:#768893;}
</style>
<title>logo</title>
<desc>Created with Sketch.</desc>
<g id="loading" transform="translate(-154.000000, -198.000000)">
	<g id="Group-32" transform="translate(154.000000, 192.000000)">
		<g id="logo">
			<g transform="translate(0.000000, 6.000000)">
				<path id="YUN2" class="st0" d="M-365.3,670.4c-0.2,0-0.3-0.1-0.4-0.3c-0.7-1.9,0.4-3.4,1.7-4c0.8-0.4,1.7-0.5,2.5-0.3
					c0.9,0.2,1.7,0.8,2.2,1.6c0.1,0.2,0,0.4-0.1,0.5c-0.2,0.1-0.4,0-0.5-0.1c-0.8-1.4-2.4-1.6-3.7-1c-1,0.5-1.9,1.5-1.3,3.1
					c0.1,0.2,0,0.4-0.2,0.5C-365.2,670.4-365.3,670.4-365.3,670.4z"/>
				<path id="YUN1" class="st0" d="M-353.8,672.4c-0.1,0-0.1,0-0.2,0c-0.1,0-0.2,0-0.2,0h-7c-0.2,0-0.4-0.2-0.4-0.4s0.2-0.4,0.4-0.4
					h7c0.1,0,0.2,0,0.2,0c1.1,0,2,0,2.6-0.8c0.7-0.9,0.4-1.9,0-2.4c-0.4-0.6-1.2-1.1-2.2-0.8c-0.1,0-0.2,0-0.3,0
					c-0.1-0.1-0.2-0.2-0.2-0.3c-0.2-1.4-1.2-2.6-2.6-3.1c-1.3-0.5-2.8-0.3-3.8,0.6c-0.2,0.1-0.4,0.1-0.5,0s-0.1-0.4,0-0.5
					c1.3-1.1,3-1.4,4.6-0.8c1.5,0.6,2.6,1.8,3,3.3c1-0.2,2.1,0.3,2.7,1.2c0.7,1,0.7,2.3,0,3.3C-351.6,672.3-352.7,672.4-353.8,672.4
					z"/>
			</g>
		</g>
	</g>
</g>
</svg>
