<?xml version="1.0" encoding="utf-8"?>
<!-- Generator: Adobe Illustrator 19.0.0, SVG Export Plug-In . SVG Version: 6.00 Build 0)  -->
<svg version="1.1" id="图层_1" xmlns="http://www.w3.org/2000/svg" xmlns:xlink="http://www.w3.org/1999/xlink" x="0px" y="0px"
	 viewBox="-366 659 16 17" style="enable-background:new -366 659 16 17;" xml:space="preserve">
<style type="text/css">
	.st0{fill:#E26735;}
</style>
<title>Shape</title>
<desc>Created with Sketch.</desc>
<g id="试试">
	<g id="_x34_b-新建会议-展开内容" transform="translate(-343.000000, -513.000000)">
		<g id="置顶" transform="translate(0.000000, 497.000000)">
			<g id="重要" transform="translate(343.000000, 16.000000)">
				<path id="Shape" class="st0" d="M-357.4,660l1.9,4.1c0.1,0.2,0.3,0.4,0.5,0.4l4.3,0.7c0.6,0.1,0.8,0.8,0.4,1.2l-3.1,3.2
					c-0.2,0.2-0.2,0.4-0.2,0.6l0.7,4.5c0.1,0.6-0.5,1.1-1,0.8l-3.9-2.1c-0.2-0.1-0.4-0.1-0.6,0l-3.9,2.1c-0.5,0.3-1.1-0.2-1-0.8
					l0.7-4.5c0-0.2,0-0.5-0.2-0.6l-3.1-3.2c-0.4-0.4-0.2-1.2,0.4-1.2l4.3-0.7c0.2,0,0.4-0.2,0.5-0.4l1.9-4.1
					C-358.4,659.5-357.6,659.5-357.4,660L-357.4,660z"/>
			</g>
		</g>
	</g>
</g>
</svg>
