<?xml version="1.0" encoding="UTF-8"?>
<svg width="13px" height="13px" viewBox="0 0 13 13" version="1.1" xmlns="http://www.w3.org/2000/svg" xmlns:xlink="http://www.w3.org/1999/xlink">
    <!-- Generator: Sketch 50 (54983) - http://www.bohemiancoding.com/sketch -->
    <title>发出的赞（行业点赞数）</title>
    <desc>Created with Sketch.</desc>
    <defs></defs>
    <g id="Page-5" stroke="none" stroke-width="1" fill="none" fill-rule="evenodd">
        <g id="点赞" transform="translate(-316.000000, -217.000000)" stroke="#4598F0">
            <g id="回复" transform="translate(0.000000, 193.000000)">
                <g id="发出的赞（行业点赞数）">
                    <path d="M320.5625,36.5 C321.035544,36.5 321.213865,36.5 322.015345,36.5 C322.119776,36.5 322.119776,36.5 322.224093,36.5 C323.350822,36.5 323.350822,36.5 324.305467,36.5 C325.101397,36.5 325.101397,36.5 325.434555,36.5 C325.910401,36.5 326.497046,36.1684269 326.681037,35.8004971 C327.140179,34.9619244 327.749202,33.2218066 328.486838,30.1670059 C328.586199,29.7555173 328.27233,28.958368 327.91002,28.8467021 C327.755702,28.8030084 327.445754,28.8039278 326.321588,28.8435745 C325.464976,28.8737852 324.924049,28.8824866 324.325444,28.8654111 L323.732487,28.8484967 L323.84953,28.2669601 C323.915012,27.9416082 323.935938,27.6135886 323.935938,26.9649174 C323.935938,25.4578314 323.611972,24.5 323.239186,24.5 C322.891495,24.5 322.585438,24.8270931 322.580435,25.2438198 C322.573235,25.9318315 321.452042,27.7756209 320.5625,28.6458174 L320.5625,36.5 Z M318.75,36.5 L318.75,29.2380729 C318.670446,29.2403732 318.616284,29.2413361 318.583445,29.2413361 L316.926633,29.2413361 C316.670465,29.2413361 316.5,29.4347119 316.5,29.7496387 L316.5,36.0406238 C316.5,36.3381335 316.652989,36.5 316.926633,36.5 L318.75,36.5 Z"></path>
                </g>
            </g>
        </g>
    </g>
</svg>