<?xml version="1.0" encoding="UTF-8"?>
<svg width="13px" height="13px" viewBox="0 0 13 13" version="1.1" xmlns="http://www.w3.org/2000/svg" xmlns:xlink="http://www.w3.org/1999/xlink">
    <!-- Generator: Sketch 50 (54983) - http://www.bohemiancoding.com/sketch -->
    <title>发出的赞（行业点赞数）</title>
    <desc>Created with Sketch.</desc>
    <defs></defs>
    <g id="Page-5" stroke="none" stroke-width="1" fill="none" fill-rule="evenodd">
        <g id="点赞" transform="translate(-302.000000, -217.000000)" fill="#4598F0">
            <g id="回复" transform="translate(0.000000, 194.000000)">
                <g id="发出的赞（行业点赞数）">
                    <path d="M306.0625,35.7111111 L306.0625,27.899949 C306.909349,27.2386705 308.074857,25.4831206 308.080462,24.9951577 C308.088661,24.3728281 308.608685,23.8666667 309.239186,23.8666667 C310.132073,23.8666667 310.435938,25.2076233 310.435938,26.5680359 C310.435938,27.1376749 310.418244,27.4886688 310.339701,27.8442265 C311.999892,27.8873746 313.563757,27.7197605 314.046235,27.8442265 C314.803614,28.0566483 315.095763,29.1287147 314.972869,29.592423 C314.046235,33.0888162 313.379398,34.4047012 313.119602,34.8370128 C312.853764,35.3224299 312.086634,35.7111111 311.434555,35.7111111 C311.072298,35.7111111 307.973515,35.7111111 306.0625,35.7111111 Z M305.25,35.7111111 L302.926633,35.7111111 C302.360409,35.7111111 302,35.34453 302,34.8370128 L302,29.1052264 C302,28.5981175 302.360409,28.1865507 302.926633,28.1865507 L304.583445,28.1865507 C304.583445,28.1865507 304.727857,28.1865507 305.25,28.1660431 L305.25,35.7111111 Z"></path>
                </g>
            </g>
        </g>
    </g>
</svg>